# AST/ASF file generated using VICON BodyLanguage
# -----------------------------------------------
:version 1.10
:name VICON
:units
  mass 1.0
  length 0.45
  angle deg
:documentation
   .ast/.asf automatically generated from VICON data using
   VICON BodyBuilder and BodyLanguage model FoxedUp or BRILLIANT.MOD
:root
   order TX TY TZ RX RY RZ
   axis XYZ
   position 0 0 0  
   orientation 0 0 0 
:bonedata
  begin
     id 1 
     name lhipjoint
     direction 0.597014 -0.743513 0.301268 
     length 2.48253 
     axis 0 0 0  XYZ
  end
  begin
     id 2 
     name lfemur
     direction 0.34202 -0.939693 0  
     length 7.51389  
     axis 0 0 20  XYZ
    dof rx ry rz
    limits (-160.0 20.0)
           (-70.0 70.0)
           (-60.0 70.0)
  end
  begin
     id 3 
     name ltibia
     direction 0.34202 -0.939693 0   
     length 7.54147   
     axis 0 0 20   XYZ
    dof rx
    limits (-10.0 170.0)
  end
  begin
     id 4 
     name lfoot
     direction 0.10378 -0.285133 0.952853   
     length 2.2132   
     axis -90 7.62852e-016 20   XYZ
    dof rx rz
    limits (-45.0 90.0)
           (-70.0 20.0)
  end
  begin
     id 5 
     name ltoes
     direction 1.5354e-011 -4.2171e-011 1   
     length 1.10362   
     axis -90 7.62852e-016 20   XYZ
    dof rx
    limits (-90.0 20.0)
  end
  begin
     id 6 
     name rhipjoint
     direction -0.591912 -0.747009 0.302685   
     length 2.47092  
     axis 0 0 0  XYZ 
  end
  begin
     id 7 
     name rfemur
     direction -0.34202 -0.939693 0   
     length 7.69991   
     axis 0 0 -20   XYZ
    dof rx ry rz
    limits (-160.0 20.0)
           (-70.0 70.0)
           (-70.0 60.0)
  end
  begin
     id 8 
     name rtibia
     direction -0.34202 -0.939693 0   
     length 7.40774   
     axis 0 0 -20   XYZ
    dof rx
    limits (-10.0 170.0)
 end
 begin
     id 9 
     name rfoot
     direction -0.0916245 -0.251736 0.963449   
     length 2.08235  
     axis -90 -7.62852e-016 -20   XYZ
    dof rx rz
    limits (-45.0 90.0)
           (-20.0 70.0)
  end
  begin
     id 10 
     name rtoes
     direction -1.53527e-011 -4.21878e-011 1   
     length 1.04369   
     axis -90 -7.62852e-016 -20   XYZ
    dof rx
    limits (-90.0 20.0)
  end
  begin
     id 11 
     name lowerback
     direction -0.0122523 0.991496 -0.12956   
     length 2.10814   
     axis 0 0 0   XYZ
    dof rx ry rz
    limits (-20.0 45.0)
           (-30.0 30.0)
           (-30.0 30.0)
  end
  begin
     id 12 
     name upperback
     direction 0.012378 0.999784 -0.0167122   
     length 2.11728   
     axis 0 0 0   XYZ
    dof rx ry rz
    limits (-20.0 45.0)
           (-30.0 30.0)
           (-30.0 30.0)
  end
  begin
     id 13 
     name thorax
     direction 0.0187236 0.998893 0.0431542   
     length 2.15267   
     axis 0 0 0   XYZ
    dof rx ry rz
    limits (-20.0 45.0)
           (-30.0 30.0)
           (-30.0 30.0)
  end
  begin
     id 14 
     name lowerneck
     direction 0.0165467 0.987304 0.157979   
     length 1.72129   
     axis 0 0 0   XYZ
    dof rx ry rz
    limits (-20.0 45.0)
           (-30.0 30.0)
           (-30.0 30.0)
  end
  begin
     id 15 
     name upperneck
     direction -0.0560236 0.986819 -0.151818   
     length 1.75382   
     axis 0 0 0   XYZ
    dof rx ry rz
    limits (-20.0 45.0)
           (-30.0 30.0)
           (-30.0 30.0)
  end
  begin
     id 16
     name head
     direction -0.0173602 0.99745 -0.0692312  
     length 1.76328  
     axis 0 0 0   XYZ
    dof rx ry rz
    limits (-20.0 45.0)
           (-30.0 30.0)
           (-30.0 30.0)
  end
  begin
     id 17 
     name lclavicle
     direction 0.957734 0.271724 -0.094399  
     length 3.5782  
     axis 0 0 0   XYZ
    dof ry rz
    limits (-20.0 10.0)
           (0.0 20.0)
  end
  begin
     id 18 
     name lhumerus
     direction 1 -4.48963e-011 1.21581e-027   
     length 5.25525   
     axis 180 -30 -90   XYZ
    dof rx ry rz
    limits (-60.0 90.0)
           (-90.0 90.0)
           (-90.0 90.0)
  end
  begin
     id 19
     name lradius
     direction 1 -4.48975e-011 3.71216e-028   
     length 3.35106   
     axis 180 -30 -90   XYZ
    dof rx
    limits (-10.0 170.0)
  end
  begin
     id 20
     name lwrist
     direction 1 -4.48957e-011 4.76535e-027   
     length 1.67553   
     axis -3.27501e-015 90 90   XYZ
    dof ry
    limits (-180.0 0.0)
 end
  begin
     id 21 
     name lhand
     direction 1 -4.49008e-011 9.52727e-027   
     length 0.574153   
     axis -6.08097e-015 90 90   XYZ
    dof rx rz
    limits (-90.0 90.0)
           (-45.0 45.0)
  end
  begin
     id 22 
     name lfingers
     direction 1 -4.48996e-011 1.90562e-026   
     length 0.462897   
     axis -1.21618e-014 90 90   XYZ
    dof rx
    limits (0.0 90.0)
  end
  begin
     id 23
     name lthumb
     direction 0.707107 -6.34908e-011 0.707107   
     length 0.66463   
     axis -90 45 -1.62303e-014   XYZ
    dof rx rz
    limits (-45.0 45.0)
           (-45.0 45.0)
  end
  begin
     id 24 
     name rclavicle
     direction -0.950439 0.29623 -0.0944132   
     length 3.45861  
     axis 0 0 0   XYZ 
    dof ry rz
    limits (-10.0 20.0)
           (-20.0 0.0)
  end
  begin
     id 25 
     name rhumerus
     direction -1 -4.48986e-011 1.25473e-027  
     length 5.33104   
     axis 180 30 90   XYZ
    dof rx ry rz
    limits (-90.0 60.0)
           (-90.0 90.0)
           (-90.0 90.0)
  end
  begin
     id 26 
     name rradius
     direction -1 -4.4894e-011 1.66273e-027   
     length 3.39883   
     axis 180 30 90   XYZ
    dof rx
    limits (-10.0 170.0)
  end
  begin
     id 27 
     name rwrist
     direction -1 -4.48946e-011 4.76572e-027   
     length 1.69941   
     axis -3.27501e-015 -90 -90   XYZ
    dof ry
    limits (-180.0 0.0)
  end
  begin
     id 28
     name rhand
     direction -1 -4.49028e-011 9.52595e-027   
     length 0.913886   
     axis -6.08097e-015 -90 -90   XYZ
    dof rx rz
    limits (-90.0 90.0)
           (-45.0 45.0)
  end
  begin
     id 29
     name rfingers
     direction -1 -4.48945e-011 1.9063e-026   
     length 0.736798   
     axis -1.21618e-014 -90 -90   XYZ
    dof rx
    limits (0.0 90.0)
  end
  begin
     id 30
     name rthumb
     direction -0.707107 -6.34966e-011 0.707107   
     length 1.0579   
     axis -90 -45 1.62303e-014   XYZ
    dof rx rz
    limits (-45.0 45.0)
           (-45.0 45.0)
  end
:hierarchy
  begin
    root lhipjoint rhipjoint lowerback
    lhipjoint lfemur
    lfemur ltibia
    ltibia lfoot
    lfoot ltoes
    rhipjoint rfemur
    rfemur rtibia
    rtibia rfoot
    rfoot rtoes
    lowerback upperback
    upperback thorax
    thorax lowerneck lclavicle rclavicle
    lowerneck upperneck
    upperneck head
    lclavicle lhumerus
    lhumerus lradius
    lradius lwrist
    lwrist lhand lthumb
    lhand lfingers
    rclavicle rhumerus
    rhumerus rradius
    rradius rwrist
    rwrist rhand rthumb
    rhand rfingers
  end

#!OML:ASF F:\VICON\USERDATA\INSTALL\rory3\rory3.ASF
:FULLY-SPECIFIED
:DEGREES
592
root -4.66764 17.3366 38.2584 177.869 -12.4856 -181.534
lowerback 10.6908 2.09624 -0.216149
upperback 2.52287 2.58059 0.409735
thorax -3.38729 1.19851 0.205623
lowerneck -21.2314 -3.56424 1.8238
upperneck 13.7538 -4.21034 -6.96388
head 7.50827 -2.65418 -3.135
rclavicle -8.99501e-015 5.56597e-015
rhumerus -20.7795 -17.314 -87.5148
rradius 19.3631
rwrist 24.9588
rhand -10.9231 11.2012
rfingers 7.12502
rthumb 15.0946 -18.2284
lclavicle -8.99501e-015 5.56597e-015
lhumerus -41.2239 19.9989 70.0326
lradius 21.0369
lwrist -9.56869
lhand -9.30922 23.2803
lfingers 7.12502
lthumb 16.6488 52.5863
rfemur -5.24708 -7.14034 10.1321
rtibia 34.6638
rfoot -21.1684 -19.2262
rtoes 4.88978
lfemur -11.7292 -7.34725 -21.3381
ltibia 38.5207
lfoot -17.8583 -7.37267
ltoes -5.91406
593
root -4.77759 17.3309 38.2558 177.805 -11.9597 -181.812
lowerback 11.1092 2.00511 -0.106334
upperback 2.26088 2.47793 0.246692
thorax -3.87793 1.1505 -0.0310865
lowerneck -20.7755 -3.31464 2.04158
upperneck 14.1564 -3.90204 -7.05867
head 7.57436 -2.5035 -3.16446
rclavicle -2.08227e-014 4.77083e-015
rhumerus -23.1803 -18.6233 -85.2219
rradius 20.047
rwrist 22.5383
rhand -11.2028 10.0732
rfingers 7.12502
rthumb 14.8251 -19.3765
lclavicle -2.08227e-014 4.77083e-015
lhumerus -42.742 19.1352 69.6825
lradius 21.99
lwrist -7.93045
lhand -9.25379 23.4277
lfingers 7.12502
lthumb 16.7021 52.7292
rfemur -5.11003 -6.82145 9.41134
rtibia 34.6091
rfoot -21.0684 -18.9558
rtoes 4.70818
lfemur -11.4547 -6.7069 -22.002
ltibia 38.503
lfoot -17.8688 -7.57731
ltoes -6.02848
594
root -4.88191 17.3244 38.2454 177.901 -11.4075 -182.096
lowerback 10.7869 1.97469 -0.227283
upperback 2.19773 2.43291 0.216494
thorax -3.76962 1.13405 0.0211695
lowerneck -20.2299 -3.09043 2.32711
upperneck 14.3669 -3.61424 -7.4333
head 7.5547 -2.38883 -3.2938
rclavicle -3.32964e-014 -5.96354e-015
rhumerus -25.3709 -19.3569 -82.7797
rradius 21.0636
rwrist 19.4677
rhand -11.6497 8.927
rfingers 7.12502
rthumb 14.3946 -20.5539
lclavicle -3.32964e-014 -5.96354e-015
lhumerus -43.7754 18.9732 69.3731
lradius 22.5641
lwrist -7.00934
lhand -9.2485 23.4718
lfingers 7.12502
lthumb 16.7072 52.7728
rfemur -5.19287 -6.28271 8.7919
rtibia 34.6268
rfoot -21.1442 -18.8993
rtoes 4.89829
lfemur -11.3216 -6.09809 -22.6346
ltibia 38.4535
lfoot -17.7898 -7.7528
ltoes -4.61769
595
root -4.99195 17.3163 38.2298 177.865 -10.8502 -182.251
lowerback 10.4673 1.82138 -0.144371
upperback 2.28627 2.238 0.253961
thorax -3.49846 1.0364 0.0520726
lowerneck -20.2051 -2.78702 2.26854
upperneck 14.7483 -3.14988 -7.60342
head 7.70221 -2.19795 -3.2996
rclavicle 2.63887e-014 -6.36111e-015
rhumerus -27.2214 -19.5272 -80.424
rradius 22.035
rwrist 16.6641
rhand -12.3505 7.95642
rfingers 7.12502
rthumb 13.7193 -21.5713
lclavicle 2.63887e-014 -6.36111e-015
lhumerus -44.4985 19.5234 68.9051
lradius 22.8204
lwrist -6.67585
lhand -9.43324 23.4289
lfingers 7.12502
lthumb 16.5294 52.7449
rfemur -5.16902 -5.66208 8.28915
rtibia 34.6338
rfoot -21.1598 -18.908
rtoes 5.29043
lfemur -11.0443 -5.81957 -23.1929
ltibia 38.4179
lfoot -17.7743 -7.65078
ltoes -2.91959
596
root -5.09129 17.3027 38.2205 177.811 -10.2499 -182.484
lowerback 10.6917 1.75638 -0.258526
upperback 2.03791 2.1531 0.25066
thorax -3.88484 1.00093 0.112653
lowerneck -19.9799 -2.51141 2.30671
upperneck 15.4105 -2.7433 -7.75138
head 7.90491 -2.0295 -3.32303
rclavicle -4.55714e-014 1.23246e-014
rhumerus -29.3874 -19.8902 -77.799
rradius 22.7541
rwrist 14.1695
rhand -12.8313 7.30994
rfingers 7.12502
rthumb 13.2558 -22.2485
lclavicle -4.55714e-014 1.23246e-014
lhumerus -45.3856 19.7074 68.3054
lradius 22.7841
lwrist -6.54155
lhand -9.53281 23.1736
lfingers 7.12502
lthumb 16.4335 52.4975
rfemur -5.16072 -5.20432 7.70619
rtibia 34.6321
rfoot -20.8354 -18.8247
rtoes 4.96438
lfemur -10.7895 -5.20296 -23.7706
ltibia 38.393
lfoot -17.7341 -7.75336
ltoes -1.61454
597
root -5.18166 17.2934 38.213 177.651 -9.92717 -182.665
lowerback 10.6089 1.6248 -0.359033
upperback 2.08579 1.96605 0.29121
thorax -3.79303 0.908382 0.240217
lowerneck -19.8178 -2.27092 2.33323
upperneck 15.7319 -2.39464 -7.88891
head 8.00297 -1.88492 -3.33915
rclavicle -1.5207e-014 2.38542e-015
rhumerus -31.0783 -20.6223 -75.0341
rradius 23.2642
rwrist 12.5613
rhand -13.0677 7.16343
rfingers 7.12502
rthumb 13.0279 -22.4097
lclavicle -1.5207e-014 2.38542e-015
lhumerus -45.6075 20.3172 67.7698
lradius 22.3725
lwrist -7.00722
lhand -9.94904 23.3584
lfingers 7.12502
lthumb 16.0327 52.715
rfemur -4.9553 -4.8118 7.22009
rtibia 34.6003
rfoot -20.6853 -18.7833
rtoes 5.30334
lfemur -10.4767 -4.98304 -24.3042
ltibia 38.3888
lfoot -17.7033 -7.72904
ltoes -0.370476
598
root -5.26594 17.2803 38.2018 177.375 -9.52898 -182.788
lowerback 11.0257 1.47676 -0.267984
upperback 1.88705 1.78167 0.200268
thorax -4.22347 0.818298 0.106754
lowerneck -19.3611 -2.06625 2.40565
upperneck 16.0134 -2.13563 -7.86464
head 8.03223 -1.75708 -3.31008
rclavicle -2.34566e-014 -1.78906e-014
rhumerus -33.0467 -21.2035 -72.3643
rradius 23.7495
rwrist 11.417
rhand -12.8495 6.77443
rfingers 7.12502
rthumb 13.2383 -22.7852
lclavicle -2.34566e-014 -1.78906e-014
lhumerus -46.0502 20.581 67.0207
lradius 22.0431
lwrist -7.60279
lhand -10.2443 23.4983
lfingers 7.12502
lthumb 15.7484 52.8776
rfemur -4.72271 -4.41851 6.85256
rtibia 34.6103
rfoot -20.2083 -19.0889
rtoes 4.41091
lfemur -10.0381 -4.56819 -24.7273
ltibia 38.3648
lfoot -17.8133 -7.77551
ltoes -0.169264
599
root -5.35263 17.2703 38.1904 177.245 -8.96232 -182.833
lowerback 10.7079 1.34463 -0.261284
upperback 2.01823 1.60495 0.271711
thorax -3.91171 0.728862 0.211564
lowerneck -19.0343 -1.78625 2.44426
upperneck 15.8504 -1.75595 -7.972
head 7.94258 -1.58278 -3.2966
rclavicle 3.3197e-014 -3.97569e-015
rhumerus -33.9749 -21.5656 -69.9019
rradius 23.9721
rwrist 10.493
rhand -12.7294 6.40678
rfingers 7.12502
rthumb 13.354 -23.1453
lclavicle 3.3197e-014 -3.97569e-015
lhumerus -45.939 21.074 66.8495
lradius 21.779
lwrist -8.10636
lhand -10.3412 24.0267
lfingers 7.12502
lthumb 15.6551 53.4133
rfemur -4.75846 -4.03419 6.55692
rtibia 34.6122
rfoot -19.6704 -19.3948
rtoes 3.02822
lfemur -9.78465 -4.2723 -25.1063
ltibia 38.3425
lfoot -18.2192 -7.3513
ltoes -2.08481
600
root -5.43874 17.2596 38.182 177.144 -8.41019 -183.077
lowerback 10.5972 1.15137 -0.422579
upperback 1.96731 1.33447 0.262338
thorax -3.90521 0.598805 0.331506
lowerneck -18.5204 -1.43313 2.41147
upperneck 15.7737 -1.2765 -7.9614
head 7.85698 -1.35234 -3.21974
rclavicle 1.12313e-014 4.37326e-015
rhumerus -34.9678 -21.3414 -67.7078
rradius 24.3018
rwrist 9.80919
rhand -12.4637 5.93301
rfingers 7.12502
rthumb 13.6101 -23.6021
lclavicle 1.12313e-014 4.37326e-015
lhumerus -45.9824 21.6248 66.5247
lradius 21.3606
lwrist -8.89923
lhand -10.6132 23.8752
lfingers 7.12502
lthumb 15.3931 53.2822
rfemur -4.82592 -3.79414 5.98842
rtibia 34.6628
rfoot -19.1733 -19.4084
rtoes 2.11131
lfemur -9.50462 -4.11738 -25.6992
ltibia 38.282
lfoot -18.2727 -7.12098
ltoes -0.95225
